<?xml version="1.0" encoding="UTF-8"?>
<!DOCTYPE svg PUBLIC "-//W3C//DTD SVG 1.1//EN" "http://www.w3.org/Graphics/SVG/1.1/DTD/svg11.dtd">
<!-- Creator: CorelDRAW Home & Student 2019 -->
<svg xmlns="http://www.w3.org/2000/svg" xml:space="preserve" width="183.448mm" height="121.776mm" version="1.1" style="shape-rendering:geometricPrecision; text-rendering:geometricPrecision; image-rendering:optimizeQuality; fill-rule:evenodd; clip-rule:evenodd"
viewBox="0 0 17936.3 11906.39"
 xmlns:xlink="http://www.w3.org/1999/xlink">
 <defs>
  <style type="text/css">
   <![CDATA[
    .fil0 {fill:white}
    .fil1 {fill:white;fill-rule:nonzero}
   ]]>
  </style>
 </defs>
 <g id="Ebene_x0020_1">
  <metadata id="CorelCorpID_0Corel-Layer"/>
  <path class="fil0" d="M8967.34 9.78c4933.27,0 8959.19,2669.81 8959.19,5945.05 0,3271.99 -4025.92,5941.79 -8959.19,5941.79 -4933.27,0 -8957.56,-2669.8 -8957.56,-5941.79 0,-3275.24 4024.29,-5945.05 8957.56,-5945.05zm14.69 926.93c3763.19,0 6834.45,2292.84 6834.45,5107.88 0,2813.42 -3071.26,5107.88 -6834.45,5107.88 -3761.56,0 -6831.18,-2294.46 -6831.18,-5107.88 0,-2815.04 3069.62,-5107.88 6831.18,-5107.88z"/>
  <path class="fil1" d="M9448.22 4197.42c-169.19,0 -273.21,43.86 -312.05,129.08 -30.07,63.91 -57.65,187.99 -82.72,374.72 -26.32,185.48 -38.85,354.66 -38.85,506.31 0,90.23 28.82,152.9 87.72,187.99 58.9,33.83 169.19,51.38 330.85,51.38 107.78,0 186.74,-20.05 238.12,-58.9 51.38,-40.11 87.72,-105.27 106.52,-198.02 56.4,-266.93 171.69,-401.03 345.89,-401.03 298.27,0 447.41,357.17 447.41,1072.77 0,452.42 -65.18,785.78 -194.26,997.58 -78.95,130.33 -186.73,195.5 -323.34,195.5 -144.12,0 -228.09,-96.49 -249.39,-290.75 -12.53,-124.07 -27.57,-213.05 -46.37,-264.43 -17.54,-51.39 -52.63,-100.27 -104.02,-146.63 -81.45,-75.2 -198.01,-114.05 -353.41,-114.05 -109.03,0 -184.22,20.05 -223.08,58.91 -38.85,38.85 -56.4,114.04 -51.38,224.33 0,20.05 -1.25,132.84 -3.75,340.88 0,423.59 43.86,681.76 131.58,775.75 30.08,36.34 60.16,60.16 90.23,71.43 31.34,10.03 110.29,26.32 240.62,45.12 63.91,10.02 117.81,42.61 161.67,99.01 43.87,56.4 66.43,121.56 66.43,195.51 0,187.98 -110.29,309.55 -330.85,363.43 -318.32,75.2 -764.48,114.05 -1339.72,114.05 -505.05,0 -852.2,-30.08 -1042.69,-88.98 -86.47,-26.32 -155.4,-75.2 -209.28,-146.63 -53.89,-71.43 -81.46,-149.13 -81.46,-234.35 0,-107.79 38.86,-195.51 117.81,-260.67 20.05,-15.04 86.47,-46.37 201.76,-92.74 136.61,-53.89 219.32,-177.97 245.64,-374.73 43.87,-300.77 66.43,-987.55 66.43,-2059.06 0,-462.45 -16.3,-761.97 -47.63,-899.83 -31.33,-136.6 -109.03,-231.85 -231.85,-285.73 -121.56,-53.89 -201.77,-101.52 -240.62,-141.62 -37.59,-40.1 -56.4,-99.01 -56.4,-174.19 0,-107.79 52.63,-198.01 157.9,-270.7 105.27,-71.43 235.61,-107.78 389.76,-107.78 97.75,0 240.62,7.52 428.61,22.56 399.77,31.34 877.26,47.63 1432.44,47.63 888.54,0 1486.34,-25.07 1795.89,-73.95 41.36,-5.01 72.68,-7.52 95.25,-7.52 85.22,0 167.93,48.88 245.63,146.63 215.56,274.46 323.34,577.74 323.34,911.11 0,151.64 -35.09,273.2 -106.52,363.43 -71.43,90.23 -164.17,135.35 -279.46,135.35 -85.23,0 -150.39,-16.29 -194.26,-51.38 -43.86,-33.84 -156.65,-154.15 -338.37,-359.68 -109.04,-126.58 -241.87,-210.54 -397.27,-249.39 -155.41,-38.86 -444.91,-65.18 -868.5,-77.7z"/>
  <path class="fil1" d="M13509.45 4258.77c408.94,0 766.56,116.5 1072.04,351.1 206.92,160.48 374.73,369.02 503.44,624.82 125.45,254.98 188.17,509.14 188.17,764.12 0,375.55 -123.82,711.17 -372.28,1006.89 -210.17,251.72 -483.89,431.75 -822.77,541.72 -208.55,66.8 -417.9,100.2 -628.08,100.2 -275.34,0 -538.47,-57.02 -790.18,-171.89 -303.86,-138.49 -541.72,-347.85 -713.62,-627.26 -167,-270.45 -250.08,-569.42 -250.08,-895.27 0,-378.8 106.71,-712.8 321.77,-1001.99 191.44,-258.24 448.05,-447.23 770.64,-568.61 216.69,-82.29 457.01,-123.83 720.95,-123.83zm74.54 673.18c-127.97,-38.38 -246.48,-11.83 -355.55,79.63 -83.48,68.52 -142.77,161.31 -177.87,278.34 -51.71,172.46 -76.26,381.96 -73.89,629.31 2.38,247.35 30.17,475.1 84.66,681.94 24.36,88.95 65.1,165.8 121.21,231.11 56.35,64.52 119.78,108.21 191.57,129.74 115.49,34.63 222.23,19.01 319.21,-46.32 96.42,-66.33 166.49,-169.49 209.07,-311.51 55.22,-184.16 85.24,-392.02 89.81,-622.82 4.03,-231.82 -17.92,-436.56 -66.96,-616.25 -30.67,-110.4 -75.78,-203.87 -135.56,-279.62 -60.56,-76 -129.38,-127.25 -205.7,-153.53z"/>
  <path class="fil1" d="M3822 4345.52l1226.02 0c248.46,0 429.3,-4.89 543.35,-15.48 114.04,-10.59 224.84,-31.77 333.18,-63.54 33.4,-8.96 59.47,-13.84 78.21,-13.84 83.09,0 156.41,43.99 219.94,133.6 105.09,145.01 157.23,319.34 157.23,524.62 0,103.45 -22,184.92 -65.18,245.21 -43.99,59.47 -104.27,88.79 -180.03,88.79 -52.95,0 -93.69,-10.59 -123.01,-31.77 -29.32,-21.18 -69.24,-70.05 -118.12,-144.19 -70.05,-106.72 -158.85,-178.41 -266.38,-214.25 -107.53,-35.84 -283.49,-53.77 -528.69,-53.77 -183.3,0 -294.08,33.4 -334,98.57 -21.18,35.02 -33.4,81.45 -37.47,140.93 -3.27,58.64 -5.71,208.54 -5.71,450.48 0,95.32 16.3,154.78 48.07,177.6 31.77,23.62 114.86,35.02 250.09,35.02 66.8,0 115.68,-13.84 145.82,-41.54 30.13,-28.51 49.69,-78.2 57.02,-149.07 11.4,-92.86 22.81,-155.6 35.03,-189.81 11.4,-34.21 33.4,-64.35 65.17,-89.61 33.4,-28.51 72.5,-43.18 117.31,-43.18 65.17,0 120.56,30.95 167,92.86 33.4,46.43 61.91,127.9 84.72,245.21 22.81,116.5 35.03,238.68 35.03,365.77 0,251.72 -39.11,457.82 -117.31,618.3 -43.18,87.99 -108.34,131.15 -195.51,131.15 -54.59,0 -92.05,-13.84 -112.42,-41.54 -20.37,-27.7 -36.66,-85.53 -48.07,-172.7 -23.62,-180.04 -128.71,-269.64 -314.45,-269.64 -71.69,0 -120.56,21.99 -146.63,67.61 -26.89,45.62 -39.92,129.52 -39.92,251.72 0,74.94 5.71,171.89 15.48,290 10.6,118.94 21.19,197.14 32.59,235.43 12.22,47.25 52.14,80.65 118.12,98.57 65.99,18.73 175.96,27.7 330.74,27.7 238.69,0 417.91,-30.96 539.29,-92.05 120.56,-61.1 219.13,-171.89 295.7,-333.18 44.81,-92.05 84.72,-153.97 120.56,-185.74 35.84,-31.77 82.29,-48.07 139.31,-48.07 66.8,0 122.19,29.33 166.18,87.16 43.99,58.65 65.17,131.16 65.17,218.33 0,95.31 -24.43,215.05 -73.32,358.43 -49.69,143.37 -109.97,270.46 -181.65,382.07 -36.66,53.77 -66.81,89.61 -90.43,108.34 -24.43,17.92 -54.58,26.88 -91.23,27.7 -30.14,-0.82 -73.32,-4.89 -131.16,-14.67 -101.82,-18.73 -237.86,-30.95 -408.12,-35.84l-2023.53 0c-81.46,0 -144.19,-17.92 -189,-53.77 -43.99,-35.84 -66.8,-86.35 -66.8,-151.52 0,-46.43 9.78,-79.83 29.33,-100.2 18.73,-20.37 62.72,-47.25 131.15,-79.02 47.24,-20.37 83.09,-45.62 105.9,-75.76 22.81,-30.95 40.73,-74.94 53.77,-133.6 52.14,-240.32 79.02,-564.53 79.02,-971.84 0,-614.23 -38.29,-1001.18 -114.86,-1162.47 -15.48,-31.77 -33.4,-53.77 -52.13,-66.8 -19.55,-12.22 -59.47,-27.7 -119.75,-44.81 -90.42,-27.69 -136.04,-87.98 -136.04,-181.65 0,-51.32 15.48,-96.13 45.62,-136.05 30.14,-39.91 70.05,-65.98 118.93,-79.01 61.92,-13.85 182.48,-21.19 360.88,-21.19z"/>
 </g>
</svg>
