<?xml version="1.0" encoding="UTF-8"?>
<!DOCTYPE svg PUBLIC "-//W3C//DTD SVG 1.1//EN" "http://www.w3.org/Graphics/SVG/1.1/DTD/svg11.dtd">
<!-- Creator: CorelDRAW Home & Student 2019 -->
<svg xmlns="http://www.w3.org/2000/svg" xml:space="preserve" width="210mm" height="148mm" version="1.1" style="shape-rendering:geometricPrecision; text-rendering:geometricPrecision; image-rendering:optimizeQuality; fill-rule:evenodd; clip-rule:evenodd"
viewBox="0 0 21000 14800"
 xmlns:xlink="http://www.w3.org/1999/xlink">
 <defs>
  <style type="text/css">
   <![CDATA[
    .str0 {stroke:black;stroke-width:20;stroke-miterlimit:22.9256}
    .fil0 {fill:#009933}
    .fil2 {fill:black;fill-rule:nonzero}
    .fil1 {fill:#009933;fill-rule:nonzero}
    .fil3 {fill:white;fill-rule:nonzero}
   ]]>
  </style>
 </defs>
 <g id="Ebene_x0020_1">
  <metadata id="CorelCorpID_0Corel-Layer"/>
  <g>
   <path class="fil0" d="M3463.96 4104.6c553.92,0 1002.95,449.03 1002.95,1002.95 0,553.92 -449.03,1002.95 -1002.95,1002.95 -553.92,0 -1002.95,-449.03 -1002.95,-1002.95 0,-553.92 449.03,-1002.95 1002.95,-1002.95zm-596.58 1621.92c-168.11,-162.04 -263.09,-385.48 -263.09,-618.97 0,-474.78 384.89,-859.67 859.67,-859.67 474.78,0 859.67,384.89 859.67,859.67 0,235.1 -96.28,459.93 -266.42,622.17l-1189.83 -3.2zm0 0l1189.83 3.2 -1189.83 -3.2z"/>
  </g>
  <circle class="fil0" cx="3463.96" cy="5107.55" r="277.6"/>
  <rect class="fil0" x="2586.39" y="5071.76" width="591.37" height="71.55"/>
  <rect class="fil0" transform="matrix(1.59209 -0.579472 0.579472 1.59209 2627.09 5374.07)" width="349.04" height="42.23"/>
  <rect class="fil0" transform="matrix(1.29788 -1.08905 1.08905 1.29788 2768.74 5644.23)" width="349.04" height="42.23"/>
  <rect class="fil0" transform="matrix(0.847131 -1.46727 1.46727 0.847131 2994.24 5849.64)" width="349.04" height="42.23"/>
  <rect class="fil0" transform="matrix(0.294205 -1.66852 1.66852 0.294205 3276.41 5965.54)" width="349.04" height="42.23"/>
  <rect class="fil0" transform="matrix(-0.294205 -1.66852 1.66852 -0.294205 3581.19 5977.95)" width="349.04" height="42.23"/>
  <rect class="fil0" transform="matrix(-0.847131 -1.46727 1.46727 -0.847131 3871.84 5885.37)" width="349.04" height="42.23"/>
  <rect class="fil0" transform="matrix(-1.29788 -1.08905 1.08905 -1.29788 4113.29 5698.96)" width="349.04" height="42.23"/>
  <rect class="fil0" transform="matrix(-1.59209 -0.579472 0.579472 -1.59209 4276.43 5441.21)" width="349.04" height="42.23"/>
  <rect class="fil0" x="3750.21" y="5071.66" width="591.37" height="71.55"/>
  <rect class="fil0" transform="matrix(-1.59209 0.579472 -0.579472 -1.59209 4300.87 4840.9)" width="349.04" height="42.23"/>
  <rect class="fil0" transform="matrix(-1.29788 1.08905 -1.08905 -1.29788 4159.22 4570.74)" width="349.04" height="42.23"/>
  <rect class="fil0" transform="matrix(-0.847131 1.46727 -1.46727 -0.847131 3933.71 4365.33)" width="349.04" height="42.23"/>
  <rect class="fil0" transform="matrix(-0.294205 1.66852 -1.66852 -0.294205 3651.55 4249.43)" width="349.04" height="42.23"/>
  <rect class="fil0" transform="matrix(0.294205 1.66852 -1.66852 0.294205 3346.77 4237.02)" width="349.04" height="42.23"/>
  <rect class="fil0" transform="matrix(0.847131 1.46727 -1.46727 0.847131 3056.12 4329.6)" width="349.04" height="42.23"/>
  <rect class="fil0" transform="matrix(1.29788 1.08905 -1.08905 1.29788 2814.67 4516.01)" width="349.04" height="42.23"/>
  <rect class="fil0" transform="matrix(1.59209 0.579472 -0.579472 1.59209 2651.53 4773.76)" width="349.04" height="42.23"/>
  <path class="fil0" d="M3588.74 4605.63l72.23 312.66c16.77,72.61 -61.01,135.54 -135.54,135.54l-122.94 0c-74.53,0 -152.29,-62.91 -135.54,-135.54l72.16 -312.66c42.34,-183.46 205.72,-190.1 249.63,0z"/>
  <rect class="fil0" x="3520.66" y="4579.73" width="8663.43" height="169.61" rx="17.19" ry="16.94"/>
  <path class="fil1" d="M12628.95 4348.47c0,11.06 -0.32,20.22 -0.95,27.33 -0.63,7.11 -1.58,12.63 -2.69,16.58 -1.26,3.95 -3,6.79 -4.89,8.37 -2.06,1.58 -4.58,2.22 -7.74,2.22 -2.37,0 -5.21,-0.48 -8.37,-1.58 -3,-1.11 -6.48,-2.22 -10.43,-3.48 -3.79,-1.26 -8.05,-2.37 -12.63,-3.47 -4.74,-1.11 -9.8,-1.58 -15.32,-1.58 -6.48,0 -12.96,1.26 -19.43,3.95 -6.48,2.68 -13.27,6.63 -20.22,12.32 -6.95,5.52 -14.21,12.95 -21.8,22.11 -7.58,9.32 -15.63,20.69 -24.32,34.27l0 257.61c0,3 -0.95,5.69 -2.84,8.06 -1.74,2.37 -4.9,4.26 -9.48,5.84 -4.42,1.42 -10.42,2.69 -17.69,3.48 -7.42,0.79 -16.9,1.1 -28.27,1.1 -11.37,0 -20.85,-0.31 -28.27,-1.1 -7.27,-0.79 -13.27,-2.06 -17.69,-3.48 -4.58,-1.58 -7.74,-3.47 -9.48,-5.84 -1.9,-2.37 -2.84,-5.06 -2.84,-8.06l0 -413.19c0,-3 0.79,-5.68 2.37,-8.05 1.42,-2.37 4.26,-4.27 8.21,-5.84 4.11,-1.43 9.16,-2.69 15.48,-3.48 6.32,-0.79 14.37,-1.1 23.85,-1.1 9.95,0 18,0.31 24.48,1.1 6.47,0.79 11.53,2.05 15.16,3.48 3.48,1.57 6,3.47 7.58,5.84 1.58,2.37 2.37,5.05 2.37,8.05l0 51.5c10.74,-15.48 21.01,-28.12 30.49,-38.07 9.63,-9.95 18.79,-18.01 27.32,-23.85 8.69,-5.84 17.38,-9.95 26.06,-12.16 8.53,-2.37 17.22,-3.48 25.91,-3.48 3.94,0 8.37,0.16 12.95,0.64 4.58,0.47 9.47,1.26 14.37,2.36 4.9,1.11 9.32,2.37 12.95,3.64 3.79,1.42 6.48,2.84 8.22,4.42 1.57,1.58 2.84,3.32 3.63,5.05 0.79,1.9 1.42,4.43 2.05,7.74 0.63,3.16 1.11,8.06 1.42,14.53 0.32,6.48 0.48,15.17 0.48,26.22z"/>
  <path id="1" class="fil1" d="M13031.24 4724.54c0,4.27 -1.58,7.59 -4.58,10.11 -3.16,2.53 -8.06,4.27 -14.69,5.37 -6.64,1.11 -16.43,1.58 -29.54,1.58 -13.9,0 -24.01,-0.47 -30.33,-1.58 -6.31,-1.1 -10.89,-2.84 -13.42,-5.37 -2.69,-2.52 -3.95,-5.84 -3.95,-10.11l0 -32.85c-17.06,18.17 -36.33,32.22 -58.12,42.33 -21.64,10.11 -45.81,15.16 -72.34,15.16 -21.8,0 -42.02,-2.84 -60.34,-8.52 -18.32,-5.69 -34.12,-14.22 -47.54,-25.43 -13.43,-11.38 -23.85,-25.28 -31.27,-41.86 -7.43,-16.74 -11.06,-36.17 -11.06,-58.28 0,-24.17 4.74,-45.02 14.06,-62.71 9.47,-17.85 23.53,-32.38 42.17,-44.06 18.64,-11.53 41.7,-20.06 69.49,-25.59 27.65,-5.53 59.87,-8.37 96.51,-8.37l40.28 0 0 -24.96c0,-12.95 -1.27,-24.32 -3.95,-34.11 -2.53,-9.64 -6.95,-17.85 -12.95,-24.33 -6.01,-6.47 -13.9,-11.21 -24.01,-14.37 -9.95,-3 -22.43,-4.58 -37.12,-4.58 -19.43,0 -36.8,2.21 -51.96,6.47 -15.32,4.27 -28.75,9.16 -40.44,14.38 -11.69,5.21 -21.48,10.11 -29.38,14.37 -7.89,4.26 -14.21,6.48 -19.11,6.48 -3.47,0 -6.47,-1.11 -9,-3.16 -2.69,-2.21 -4.9,-5.37 -6.48,-9.32 -1.73,-3.95 -3,-9 -3.95,-14.85 -0.94,-5.84 -1.42,-12.32 -1.42,-19.27 0,-9.63 0.79,-17.21 2.37,-22.74 1.42,-5.53 4.42,-10.43 8.69,-15.01 4.42,-4.42 11.85,-9.32 22.74,-14.69 10.74,-5.37 23.38,-10.42 37.91,-15 14.53,-4.74 30.33,-8.53 47.38,-11.37 17.22,-3 34.91,-4.43 53.07,-4.43 32.38,0 60.02,3.16 83.08,9.48 22.91,6.32 41.86,16.11 56.55,29.22 14.85,13.11 25.75,30.01 32.54,50.7 6.79,20.53 10.11,45.17 10.11,73.45l0 277.82zm-114.67 -177.21l-44.39 0c-18.79,0 -34.75,1.42 -48.01,4.11 -13.27,2.84 -24.01,6.94 -32.38,12.63 -8.37,5.53 -14.37,12.16 -18.17,20.06 -3.94,7.9 -5.84,16.9 -5.84,27.01 0,17.37 5.53,30.96 16.43,40.75 10.9,9.95 26.06,14.85 45.49,14.85 16.26,0 31.27,-4.11 45.01,-12.48 13.74,-8.37 27.64,-20.53 41.86,-36.65l0 -70.28z"/>
  <path id="2" class="fil1" d="M13528.45 4504.68c0,14.22 -3.16,24.64 -9.47,31.43 -6.32,6.8 -15.01,10.27 -26.22,10.27l-251.45 0c0,17.53 2.05,33.33 6.31,47.7 4.11,14.22 10.74,26.38 19.75,36.33 9.16,9.95 20.85,17.53 35.22,22.74 14.37,5.22 31.43,7.9 51.49,7.9 20.38,0 38.22,-1.42 53.7,-4.42 15.32,-3 28.75,-6.16 39.96,-9.79 11.22,-3.64 20.54,-6.8 27.96,-9.8 7.42,-3 13.42,-4.42 18.01,-4.42 2.84,0 5.21,0.47 6.94,1.58 1.9,1.1 3.48,3 4.74,5.84 1.11,2.69 2.06,6.64 2.53,11.69 0.47,5.06 0.63,11.53 0.63,19.11 0,6.79 -0.16,12.64 -0.47,17.38 -0.32,4.74 -0.79,8.84 -1.42,12.16 -0.63,3.47 -1.42,6.32 -2.69,8.53 -1.26,2.37 -2.84,4.58 -4.89,6.79 -2.06,2.05 -7.43,5.05 -16.43,8.84 -9,3.8 -20.38,7.43 -34.28,11.06 -13.89,3.63 -29.69,6.79 -47.54,9.48 -17.85,2.68 -36.96,4.1 -57.33,4.1 -36.8,0 -68.87,-4.58 -96.51,-13.89 -27.48,-9.17 -50.54,-23.22 -69.18,-42.02 -18.48,-18.79 -32.22,-42.64 -41.38,-71.23 -9,-28.75 -13.58,-62.39 -13.58,-100.93 0,-36.64 4.73,-69.65 14.37,-99.19 9.48,-29.38 23.38,-54.33 41.7,-74.87 18.16,-20.53 40.27,-36.17 66.34,-46.91 26.21,-10.9 55.59,-16.27 88.29,-16.27 34.59,0 64.12,5.06 88.61,15.32 24.64,10.11 44.69,24.33 60.49,42.33 15.64,18.01 27.32,39.49 34.75,64.13 7.42,24.64 11.05,51.49 11.05,80.55l0 18.48zm-112.77 -33.17c0.95,-32.69 -5.69,-58.44 -19.74,-77.07 -14.06,-18.8 -35.7,-28.12 -65.08,-28.12 -14.84,0 -27.8,2.84 -38.69,8.37 -11.06,5.53 -20.22,12.95 -27.49,22.43 -7.26,9.48 -12.79,20.53 -16.58,33.33 -3.95,12.95 -6.16,26.53 -6.79,41.06l174.37 0z"/>
  <path id="3" class="fil1" d="M13890 4348.47c0,11.06 -0.32,20.22 -0.95,27.33 -0.63,7.11 -1.58,12.63 -2.69,16.58 -1.26,3.95 -3,6.79 -4.89,8.37 -2.06,1.58 -4.58,2.22 -7.74,2.22 -2.37,0 -5.21,-0.48 -8.37,-1.58 -3,-1.11 -6.48,-2.22 -10.43,-3.48 -3.79,-1.26 -8.05,-2.37 -12.63,-3.47 -4.74,-1.11 -9.8,-1.58 -15.32,-1.58 -6.48,0 -12.96,1.26 -19.43,3.95 -6.48,2.68 -13.27,6.63 -20.22,12.32 -6.95,5.52 -14.21,12.95 -21.8,22.11 -7.58,9.32 -15.63,20.69 -24.32,34.27l0 257.61c0,3 -0.95,5.69 -2.84,8.06 -1.74,2.37 -4.9,4.26 -9.48,5.84 -4.42,1.42 -10.42,2.69 -17.69,3.48 -7.42,0.79 -16.9,1.1 -28.27,1.1 -11.37,0 -20.85,-0.31 -28.27,-1.1 -7.27,-0.79 -13.27,-2.06 -17.69,-3.48 -4.58,-1.58 -7.74,-3.47 -9.48,-5.84 -1.9,-2.37 -2.84,-5.06 -2.84,-8.06l0 -413.19c0,-3 0.79,-5.68 2.37,-8.05 1.42,-2.37 4.26,-4.27 8.21,-5.84 4.11,-1.43 9.16,-2.69 15.48,-3.48 6.32,-0.79 14.37,-1.1 23.85,-1.1 9.95,0 18,0.31 24.48,1.1 6.47,0.79 11.53,2.05 15.16,3.48 3.48,1.57 6,3.47 7.58,5.84 1.58,2.37 2.37,5.05 2.37,8.05l0 51.5c10.74,-15.48 21.01,-28.12 30.49,-38.07 9.63,-9.95 18.79,-18.01 27.32,-23.85 8.69,-5.84 17.38,-9.95 26.06,-12.16 8.53,-2.37 17.22,-3.48 25.91,-3.48 3.94,0 8.37,0.16 12.95,0.64 4.58,0.47 9.47,1.26 14.37,2.36 4.9,1.11 9.32,2.37 12.95,3.64 3.79,1.42 6.48,2.84 8.22,4.42 1.57,1.58 2.84,3.32 3.63,5.05 0.79,1.9 1.42,4.43 2.05,7.74 0.63,3.16 1.11,8.06 1.42,14.53 0.32,6.48 0.48,15.17 0.48,26.22z"/>
  <path id="4" class="fil1" d="M14331.93 4504.68c0,14.22 -3.16,24.64 -9.47,31.43 -6.32,6.8 -15.01,10.27 -26.22,10.27l-251.45 0c0,17.53 2.05,33.33 6.31,47.7 4.11,14.22 10.74,26.38 19.75,36.33 9.16,9.95 20.85,17.53 35.22,22.74 14.37,5.22 31.43,7.9 51.49,7.9 20.38,0 38.22,-1.42 53.7,-4.42 15.32,-3 28.75,-6.16 39.96,-9.79 11.22,-3.64 20.54,-6.8 27.96,-9.8 7.42,-3 13.42,-4.42 18.01,-4.42 2.84,0 5.21,0.47 6.94,1.58 1.9,1.1 3.48,3 4.74,5.84 1.11,2.69 2.06,6.64 2.53,11.69 0.47,5.06 0.63,11.53 0.63,19.11 0,6.79 -0.16,12.64 -0.47,17.38 -0.32,4.74 -0.79,8.84 -1.42,12.16 -0.63,3.47 -1.42,6.32 -2.69,8.53 -1.26,2.37 -2.84,4.58 -4.89,6.79 -2.06,2.05 -7.43,5.05 -16.43,8.84 -9,3.8 -20.38,7.43 -34.28,11.06 -13.89,3.63 -29.69,6.79 -47.54,9.48 -17.85,2.68 -36.96,4.1 -57.33,4.1 -36.8,0 -68.87,-4.58 -96.51,-13.89 -27.48,-9.17 -50.54,-23.22 -69.18,-42.02 -18.48,-18.79 -32.22,-42.64 -41.38,-71.23 -9,-28.75 -13.58,-62.39 -13.58,-100.93 0,-36.64 4.73,-69.65 14.37,-99.19 9.48,-29.38 23.38,-54.33 41.7,-74.87 18.16,-20.53 40.27,-36.17 66.34,-46.91 26.21,-10.9 55.59,-16.27 88.29,-16.27 34.59,0 64.12,5.06 88.61,15.32 24.64,10.11 44.69,24.33 60.49,42.33 15.64,18.01 27.32,39.49 34.75,64.13 7.42,24.64 11.05,51.49 11.05,80.55l0 18.48zm-112.77 -33.17c0.95,-32.69 -5.69,-58.44 -19.74,-77.07 -14.06,-18.8 -35.7,-28.12 -65.08,-28.12 -14.84,0 -27.8,2.84 -38.69,8.37 -11.06,5.53 -20.22,12.95 -27.49,22.43 -7.26,9.48 -12.79,20.53 -16.58,33.33 -3.95,12.95 -6.16,26.53 -6.79,41.06l174.37 0z"/>
  <path id="5" class="fil1" d="M14822.36 4723.12c0,3 -0.95,5.69 -2.84,8.06 -1.74,2.37 -4.9,4.26 -9.16,5.84 -4.43,1.42 -10.43,2.69 -18.01,3.48 -7.58,0.79 -16.9,1.1 -27.96,1.1 -11.53,0 -21,-0.31 -28.58,-1.1 -7.59,-0.79 -13.59,-2.06 -18.01,-3.48 -4.26,-1.58 -7.42,-3.47 -9.16,-5.84 -1.9,-2.37 -2.84,-5.06 -2.84,-8.06l0 -235.5c0,-20.05 -1.43,-35.85 -4.43,-47.22 -2.84,-11.53 -7.1,-21.32 -12.63,-29.38 -5.53,-8.21 -12.8,-14.53 -21.48,-19.11 -8.85,-4.42 -18.96,-6.63 -30.64,-6.63 -14.85,0 -29.7,5.37 -44.86,16.26 -15.01,10.74 -30.8,26.54 -47.07,47.07l0 274.51c0,3 -0.95,5.69 -2.84,8.06 -1.74,2.37 -4.9,4.26 -9.48,5.84 -4.42,1.42 -10.42,2.69 -17.69,3.48 -7.42,0.79 -16.9,1.1 -28.27,1.1 -11.37,0 -20.85,-0.31 -28.27,-1.1 -7.27,-0.79 -13.27,-2.06 -17.69,-3.48 -4.58,-1.58 -7.74,-3.47 -9.48,-5.84 -1.9,-2.37 -2.84,-5.06 -2.84,-8.06l0 -413.19c0,-3 0.79,-5.68 2.37,-8.05 1.42,-2.37 4.26,-4.27 8.21,-5.84 4.11,-1.43 9.16,-2.69 15.48,-3.48 6.32,-0.79 14.37,-1.1 23.85,-1.1 9.95,0 18,0.31 24.48,1.1 6.47,0.79 11.53,2.05 15.16,3.48 3.48,1.57 6,3.47 7.58,5.84 1.58,2.37 2.37,5.05 2.37,8.05l0 47.7c22.75,-24.64 45.97,-42.96 69.66,-55.28 23.53,-12.32 48.17,-18.48 73.76,-18.48 28.11,0 51.8,4.58 71.07,13.9 19.27,9.16 34.75,21.8 46.76,37.75 11.84,15.8 20.37,34.43 25.58,55.76 5.22,21.32 7.9,46.91 7.9,76.76l0 255.08z"/>
  <path class="fil2 str0" d="M5913.17 6047.07c0,4.66 -1.12,9.02 -3.1,12.13 -2.27,3.42 -5.93,6.24 -10.73,8.73 -5.1,2.49 -11.87,4.35 -20.9,5.61 -8.78,1.23 -19.79,1.86 -33.06,1.86 -13.86,0 -25.14,-0.63 -33.9,-1.86 -8.76,-1.26 -15.81,-3.12 -21.2,-5.61 -5.06,-2.49 -8.74,-5.31 -10.99,-8.73 -2.27,-3.11 -3.41,-7.47 -3.41,-12.13l0 -499.09c0,-34.57 -2.83,-66.32 -8.2,-94.65 -5.62,-28.65 -14.4,-53.25 -26.53,-74.1 -12.15,-20.55 -27.68,-36.43 -46.34,-47.32 -18.65,-10.9 -40.95,-16.51 -66.09,-16.51 -31.65,0 -63.28,13.39 -94.91,40.16 -31.65,26.79 -66.67,66.01 -104.54,117.7l0 573.81c0,4.66 -1.12,9.02 -3.37,12.13 -2.27,3.42 -5.93,6.24 -11.3,8.73 -5.08,2.49 -12.17,4.35 -20.91,5.61 -9.05,1.23 -20.06,1.86 -33.34,1.86 -12.71,0 -23.45,-0.63 -32.48,-1.86 -9.32,-1.26 -16.38,-3.12 -21.75,-5.61 -5.09,-2.49 -8.76,-5.31 -10.73,-8.73 -1.71,-3.11 -2.83,-7.47 -2.83,-12.13l0 -499.09c0,-34.57 -3.1,-66.32 -9.05,-94.65 -6.2,-28.65 -15.24,-53.25 -27.39,-74.1 -12.15,-20.55 -27.4,-36.43 -45.76,-47.32 -18.64,-10.9 -40.4,-16.51 -65.81,-16.51 -31.65,0 -63.3,13.39 -95.2,40.16 -31.94,26.79 -66.96,66.01 -104.25,117.7l0 573.81c0,4.66 -1.13,9.02 -3.39,12.13 -2.27,3.42 -5.93,6.24 -10.74,8.73 -5.08,2.49 -11.86,4.35 -20.6,5.61 -9.05,1.23 -20.35,1.86 -34.19,1.86 -13,0 -24.01,-0.63 -33.06,-1.86 -8.75,-1.26 -15.8,-3.12 -20.9,-5.61 -5.36,-2.49 -9.03,-5.31 -10.73,-8.73 -1.98,-3.11 -3.1,-7.47 -3.1,-12.13l0 -821.02c0,-4.98 0.85,-9.03 2.53,-12.45 1.69,-3.12 5.1,-6.24 9.89,-9.03 5.08,-2.82 11.3,-4.37 19.21,-5.31 7.63,-0.93 17.81,-1.56 30.52,-1.56 12.15,0 22.29,0.63 30.22,1.56 7.9,0.94 14.13,2.49 18.64,5.31 4.24,2.79 7.62,5.91 9.59,9.03 1.71,3.42 2.83,7.47 2.83,12.45l0 108.65c41.81,-51.67 82.49,-89.66 122.04,-113.63 39.56,-23.98 79.39,-36.12 119.49,-36.12 31.08,0 58.74,4.05 83.33,11.82 24.58,8.1 46.05,19 64.97,33.33 18.66,14.32 34.75,31.44 48.03,51.05 12.98,19.92 24.28,42.03 33.04,66.33 24.87,-29.91 48.31,-55.12 70.64,-75.67 22.31,-20.85 44.06,-37.68 64.67,-50.44 20.63,-12.75 40.68,-21.78 60.46,-27.7 19.49,-5.93 39.26,-8.72 59.03,-8.72 48.02,0 88.43,9.33 120.92,28.02 32.48,18.37 58.74,43.27 79.09,74.09 20.06,31.14 34.46,67.57 42.93,108.97 8.49,41.73 12.71,85.63 12.71,132.02l0 519.02zm887.28 0c0,4.66 -0.84,9.02 -2.83,12.13 -1.96,3.42 -5.35,6.24 -10.45,8.73 -4.79,2.49 -11.3,4.35 -19.47,5.61 -7.93,1.23 -17.8,1.86 -29.39,1.86 -12.71,0 -22.87,-0.63 -31.07,-1.86 -7.92,-1.26 -14.12,-3.12 -18.93,-5.61 -4.81,-2.49 -7.91,-5.31 -9.61,-8.73 -1.4,-3.11 -2.25,-7.47 -2.25,-12.13l0 -108.67c-42.66,51.69 -84.47,89.36 -125.98,113.03 -41.24,23.97 -83.34,35.8 -125.72,35.8 -49.71,0 -91.52,-9.34 -125.42,-27.4 -33.89,-18.37 -61.29,-42.97 -82.19,-74.41 -21.2,-31.45 -36.16,-67.87 -45.21,-109.6 -9.04,-41.41 -13.57,-92.16 -13.57,-151.62l0 -498.15c0,-4.98 0.87,-9.03 2.83,-12.45 1.98,-3.12 5.66,-6.24 11.03,-9.03 5.64,-2.82 12.71,-4.37 21.76,-5.31 8.76,-0.93 19.75,-1.56 33.03,-1.56 13.29,0 24.3,0.63 33.06,1.56 8.76,0.94 15.82,2.49 21.18,5.31 5.1,2.79 8.76,5.91 11.03,9.03 2.25,3.42 3.37,7.47 3.37,12.45l0 477.92c0,47.94 3.13,86.54 9.62,115.49 6.2,28.96 15.81,53.56 28.82,73.81 12.98,20.53 29.38,36.1 49.14,47.32 20.06,11.52 43.23,17.11 69.78,17.11 34.18,0 68.08,-13.39 101.98,-40.15 34.17,-26.77 70.04,-66.01 108.18,-117.69l0 -573.81c0,-4.98 0.85,-9.03 2.83,-12.45 1.98,-3.12 5.66,-6.24 11.3,-9.03 5.37,-2.82 12.43,-4.37 20.91,-5.31 8.47,-0.93 19.77,-1.56 33.61,-1.56 13.27,0 24.3,0.63 33.05,1.56 8.75,0.94 15.81,2.49 20.61,5.31 5.1,2.79 8.77,5.91 11.3,9.03 2.56,3.42 3.67,7.47 3.67,12.45l0 821.02zm720.07 -223.56c0,42.04 -7.07,79.4 -21.2,112.1 -14.11,33 -34.17,60.7 -60.16,83.12 -25.72,22.41 -56.78,39.54 -92.66,51.06 -35.89,11.52 -75.14,17.44 -118.36,17.44 -26.28,0 -51.68,-2.49 -75.7,-6.85 -24.01,-4.68 -45.48,-10.59 -64.4,-17.43 -19.21,-6.86 -35.31,-14.34 -48.59,-21.81 -13,-7.77 -22.89,-14.62 -28.81,-20.53 -6.23,-6.24 -10.45,-14.64 -13.28,-25.54 -2.83,-10.91 -4.25,-25.85 -4.25,-44.84 0,-11.52 0.57,-21.16 1.69,-29.26 1.14,-7.78 2.56,-14.01 4.26,-18.99 1.67,-4.99 3.94,-8.41 7.06,-10.59 2.81,-2.17 6.49,-3.1 10.17,-3.1 6.2,0 15.24,4.03 27.1,12.45 11.86,8.08 26.28,17.11 43.8,26.77 17.23,9.65 37.85,18.69 61.59,26.77 23.72,8.4 51.11,12.45 81.91,12.45 23.17,0 44.07,-2.8 63,-8.08 18.63,-5.61 35.02,-13.71 48.86,-24.3 13.55,-10.59 24.28,-24.28 31.63,-40.47 7.63,-16.51 11.3,-36.11 11.3,-58.54 0,-23.03 -5.37,-42.64 -16.09,-58.22 -10.74,-15.87 -25.15,-29.88 -42.66,-42.03 -17.79,-12.13 -37.57,-23.04 -59.61,-32.38 -22.02,-9.33 -44.9,-19.29 -68.36,-29.58 -23.45,-10.57 -46.32,-22.09 -68.64,-35.17 -22.31,-13.08 -42.37,-28.96 -59.89,-47.95 -17.79,-18.99 -31.92,-41.41 -42.66,-67.57 -10.72,-26.16 -16.08,-57.28 -16.08,-94.03 0,-32.05 5.63,-62.89 16.93,-92.45 11.3,-29.59 28.26,-55.42 50.86,-77.53 22.58,-22.11 50.84,-39.85 84.75,-53.25 33.88,-13.39 73.71,-20.23 118.92,-20.23 19.77,0 39.54,1.86 59.6,5.6 19.77,3.43 37.56,8.1 53.66,13.69 16.11,5.31 29.66,11.22 40.96,17.76 11.31,6.22 19.78,11.83 25.71,16.81 5.66,4.98 9.6,9.03 11.59,12.77 1.96,3.73 3.38,7.78 4.23,12.45 0.86,4.36 1.41,9.97 2.25,16.81 0.87,6.54 1.43,14.95 1.43,24.6 0,10.27 -0.56,19.3 -1.43,26.77 -0.84,7.78 -1.96,14.01 -3.94,18.69 -1.97,4.98 -4.22,8.4 -7.05,10.57 -2.83,2.19 -5.95,3.12 -9.05,3.12 -5.08,0 -12.15,-3.12 -21.75,-9.96 -9.32,-6.54 -21.47,-13.69 -36.16,-21.49 -14.96,-7.47 -32.49,-14.62 -52.83,-21.48 -20.06,-6.54 -42.93,-9.96 -68.92,-9.96 -23.18,0 -43.51,2.81 -61.3,8.72 -17.52,5.92 -32.2,14.02 -43.49,24.59 -11.3,10.59 -19.79,23.36 -25.72,37.98 -5.64,14.64 -8.47,30.21 -8.47,47.34 0,23.65 5.36,43.58 16.38,59.77 11.02,16.18 25.44,30.2 43.21,42.34 17.53,12.15 37.59,23.05 60.18,33.01 22.87,9.66 45.76,19.62 69.21,29.88 23.45,10.59 46.61,22.11 69.5,34.87 22.87,12.78 43.2,28.03 61.01,46.39 17.5,18.38 31.63,40.17 42.37,65.7 10.74,25.54 16.39,56.05 16.39,91.22zm830.78 -222.61c0,23.67 -5.36,40.79 -16.1,50.75 -10.74,9.96 -22.87,14.94 -36.73,14.94l-488.41 0c0,45.78 4.24,86.56 12.44,123.31 8.18,36.43 22.03,67.55 41.51,93.71 19.21,26.14 44.36,46.39 75.14,60.4 31.09,14.01 68.65,20.86 113.57,20.86 35.31,0 66.67,-3.12 94.35,-9.66 27.4,-6.22 51.4,-13.39 71.46,-21.48 20.06,-7.78 36.74,-14.95 49.71,-21.17 13,-6.54 22.61,-9.65 29.38,-9.65 3.68,0 7.36,0.93 10.18,3.11 3.11,2.19 5.36,5.29 7.05,9.66 1.7,4.36 3.1,10.27 3.95,17.74 0.58,7.47 1.15,16.81 1.15,27.72 0,8.08 -0.29,14.94 -0.84,20.53 -0.58,5.93 -1.16,10.91 -1.99,15.57 -0.84,4.68 -2.27,8.73 -4.23,12.46 -1.98,3.42 -4.53,7.16 -7.36,10.28 -3.1,3.42 -12.13,9.03 -27.1,16.5 -14.69,7.47 -34.19,14.95 -57.93,22.42 -23.72,7.15 -51.12,13.69 -82.19,19.62 -31.07,5.59 -64.42,8.71 -99.72,8.71 -61.3,0 -114.96,-9.66 -161.03,-28.33 -46.03,-19 -84.74,-47.02 -116.37,-84.07 -31.37,-37.06 -55.09,-83.44 -71.18,-139.49 -15.83,-56.03 -24.03,-121.11 -24.03,-195.21 0,-70.37 8.49,-133.87 24.88,-190.23 16.67,-56.03 40.39,-103.98 71.75,-143.22 31.07,-39.22 68.65,-69.11 112.99,-90.29 44.07,-20.85 93.49,-31.44 148.03,-31.44 58.47,0 108.17,10.26 149.41,31.14 40.97,20.53 74.87,48.55 101.42,83.44 26.57,34.87 45.76,75.95 58.2,122.97 12.44,47.32 18.64,97.45 18.64,151.01l0 27.39zm-137.29 -44.52c1.69,-79.07 -14.11,-141.35 -47.74,-186.18 -33.33,-45.15 -82.77,-67.57 -148.29,-67.57 -33.91,0 -63.29,7.17 -88.71,21.18 -25.43,13.69 -46.61,32.38 -63.55,55.42 -17.23,23.04 -30.51,50.13 -39.83,80.63 -9.34,30.83 -14.69,62.89 -15.83,96.52l403.95 0zm983.04 490.69c0,4.66 -0.84,9.02 -2.82,12.13 -1.97,3.42 -5.38,6.24 -10.46,8.73 -4.79,2.49 -11.3,4.35 -19.48,5.61 -7.91,1.23 -17.79,1.86 -29.38,1.86 -12.72,0 -22.87,-0.63 -31.07,-1.86 -7.92,-1.26 -14.13,-3.12 -18.93,-5.61 -4.81,-2.49 -7.91,-5.31 -9.6,-8.73 -1.41,-3.11 -2.26,-7.47 -2.26,-12.13l0 -108.67c-42.66,51.69 -84.47,89.36 -125.98,113.03 -41.26,23.97 -83.34,35.8 -125.72,35.8 -49.71,0 -91.52,-9.34 -125.42,-27.4 -33.91,-18.37 -61.29,-42.97 -82.19,-74.41 -21.2,-31.45 -36.16,-67.87 -45.22,-109.6 -9.03,-41.41 -13.56,-92.16 -13.56,-151.62l0 -498.15c0,-4.98 0.87,-9.03 2.83,-12.45 1.99,-3.12 5.66,-6.24 11.03,-9.03 5.64,-2.82 12.71,-4.37 21.74,-5.31 8.78,-0.93 19.77,-1.56 33.06,-1.56 13.28,0 24.29,0.63 33.05,1.56 8.76,0.94 15.81,2.49 21.18,5.31 5.08,2.79 8.76,5.91 11.03,9.03 2.25,3.42 3.37,7.47 3.37,12.45l0 477.92c0,47.94 3.12,86.54 9.61,115.49 6.21,28.96 15.82,53.56 28.82,73.81 12.99,20.53 29.37,36.1 49.15,47.32 20.06,11.52 43.22,17.11 69.77,17.11 34.19,0 68.09,-13.39 101.97,-40.15 34.19,-26.77 70.06,-66.01 108.2,-117.69l0 -573.81c0,-4.98 0.85,-9.03 2.83,-12.45 1.98,-3.12 5.66,-6.24 11.3,-9.03 5.35,-2.82 12.43,-4.37 20.91,-5.31 8.47,-0.93 19.75,-1.56 33.61,-1.56 13.27,0 24.28,0.63 33.06,1.56 8.74,0.94 15.8,2.49 20.6,5.31 5.1,2.79 8.76,5.91 11.3,9.03 2.56,3.42 3.67,7.47 3.67,12.45l0 821.02zm1357.06 0c0,4.66 -1.12,9.02 -3.1,12.13 -2.27,3.42 -5.95,6.24 -10.74,8.73 -5.09,2.49 -11.86,4.35 -20.91,5.61 -8.76,1.23 -19.77,1.86 -33.04,1.86 -13.86,0 -25.16,-0.63 -33.9,-1.86 -8.76,-1.26 -15.81,-3.12 -21.2,-5.61 -5.06,-2.49 -8.74,-5.31 -11.01,-8.73 -2.25,-3.11 -3.39,-7.47 -3.39,-12.13l0 -499.09c0,-34.57 -2.83,-66.32 -8.2,-94.65 -5.64,-28.65 -14.4,-53.25 -26.55,-74.1 -12.13,-20.55 -27.68,-36.43 -46.32,-47.32 -18.65,-10.9 -40.95,-16.51 -66.11,-16.51 -31.63,0 -63.26,13.39 -94.89,40.16 -31.65,26.79 -66.67,66.01 -104.54,117.7l0 573.81c0,4.66 -1.12,9.02 -3.37,12.13 -2.27,3.42 -5.95,6.24 -11.3,8.73 -5.1,2.49 -12.17,4.35 -20.91,5.61 -9.05,1.23 -20.06,1.86 -33.34,1.86 -12.71,0 -23.45,-0.63 -32.48,-1.86 -9.32,-1.26 -16.39,-3.12 -21.76,-5.61 -5.08,-2.49 -8.76,-5.31 -10.72,-8.73 -1.71,-3.11 -2.83,-7.47 -2.83,-12.13l0 -499.09c0,-34.57 -3.12,-66.32 -9.05,-94.65 -6.2,-28.65 -15.25,-53.25 -27.41,-74.1 -12.13,-20.55 -27.38,-36.43 -45.76,-47.32 -18.62,-10.9 -40.38,-16.51 -65.81,-16.51 -31.63,0 -63.28,13.39 -95.2,40.16 -31.92,26.79 -66.94,66.01 -104.23,117.7l0 573.81c0,4.66 -1.13,9.02 -3.39,12.13 -2.27,3.42 -5.95,6.24 -10.74,8.73 -5.08,2.49 -11.86,4.35 -20.6,5.61 -9.05,1.23 -20.37,1.86 -34.19,1.86 -13,0 -24.01,-0.63 -33.06,-1.86 -8.76,-1.26 -15.82,-3.12 -20.9,-5.61 -5.38,-2.49 -9.03,-5.31 -10.73,-8.73 -1.98,-3.11 -3.1,-7.47 -3.1,-12.13l0 -821.02c0,-4.98 0.83,-9.03 2.52,-12.45 1.7,-3.12 5.1,-6.24 9.9,-9.03 5.08,-2.82 11.3,-4.37 19.21,-5.31 7.63,-0.93 17.79,-1.56 30.52,-1.56 12.14,0 22.29,0.63 30.22,1.56 7.9,0.94 14.11,2.49 18.64,5.31 4.23,2.79 7.62,5.91 9.59,9.03 1.71,3.42 2.83,7.47 2.83,12.45l0 108.65c41.81,-51.67 82.49,-89.66 122.03,-113.63 39.57,-23.98 79.38,-36.12 119.5,-36.12 31.07,0 58.74,4.05 83.32,11.82 24.59,8.1 46.05,19 64.98,33.33 18.65,14.32 34.75,31.44 48.03,51.05 12.98,19.92 24.28,42.03 33.04,66.33 24.86,-29.91 48.3,-55.12 70.62,-75.67 22.33,-20.85 44.08,-37.68 64.68,-50.44 20.64,-12.75 40.68,-21.78 60.47,-27.7 19.49,-5.93 39.26,-8.72 59.03,-8.72 48.02,0 88.41,9.33 120.9,28.02 32.5,18.37 58.76,43.27 79.11,74.09 20.06,31.14 34.46,67.57 42.93,108.97 8.47,41.73 12.71,85.63 12.71,132.02l0 519.02zm716.94 -223.56c0,42.04 -7.05,79.4 -21.18,112.1 -14.13,33 -34.19,60.7 -60.16,83.12 -25.72,22.41 -56.79,39.54 -92.66,51.06 -35.88,11.52 -75.14,17.44 -118.38,17.44 -26.26,0 -51.67,-2.49 -75.68,-6.85 -24.01,-4.68 -45.49,-10.59 -64.42,-17.43 -19.21,-6.86 -35.3,-14.34 -48.59,-21.81 -12.98,-7.77 -22.89,-14.62 -28.8,-20.53 -6.22,-6.24 -10.45,-14.64 -13.28,-25.54 -2.83,-10.91 -4.24,-25.85 -4.24,-44.84 0,-11.52 0.56,-21.16 1.7,-29.26 1.13,-7.78 2.54,-14.01 4.23,-18.99 1.7,-4.99 3.95,-8.41 7.07,-10.59 2.81,-2.17 6.49,-3.1 10.16,-3.1 6.22,0 15.25,4.03 27.13,12.45 11.86,8.08 26.26,17.11 43.78,26.77 17.24,9.65 37.85,18.69 61.58,26.77 23.72,8.4 51.14,12.45 81.92,12.45 23.16,0 44.07,-2.8 62.99,-8.08 18.66,-5.61 35.04,-13.71 48.87,-24.3 13.57,-10.59 24.29,-24.28 31.64,-40.47 7.63,-16.51 11.31,-36.11 11.31,-58.54 0,-23.03 -5.38,-42.64 -16.1,-58.22 -10.76,-15.87 -25.16,-29.88 -42.66,-42.03 -17.81,-12.13 -37.58,-23.04 -59.62,-32.38 -22.03,-9.33 -44.9,-19.29 -68.35,-29.58 -23.45,-10.57 -46.32,-22.09 -68.63,-35.17 -22.33,-13.08 -42.39,-28.96 -59.9,-47.95 -17.8,-18.99 -31.93,-41.41 -42.66,-67.57 -10.72,-26.16 -16.09,-57.28 -16.09,-94.03 0,-32.05 5.64,-62.89 16.94,-92.45 11.3,-29.59 28.24,-55.42 50.84,-77.53 22.61,-22.11 50.87,-39.85 84.75,-53.25 33.9,-13.39 73.72,-20.23 118.94,-20.23 19.77,0 39.53,1.86 59.59,5.6 19.77,3.43 37.57,8.1 53.67,13.69 16.11,5.31 29.67,11.22 40.97,17.76 11.3,6.22 19.77,11.83 25.7,16.81 5.66,4.98 9.61,9.03 11.59,12.77 1.96,3.73 3.37,7.78 4.22,12.45 0.86,4.36 1.42,9.97 2.27,16.81 0.86,6.54 1.4,14.95 1.4,24.6 0,10.27 -0.54,19.3 -1.4,26.77 -0.85,7.78 -1.97,14.01 -3.95,18.69 -1.98,4.98 -4.24,8.4 -7.07,10.57 -2.83,2.19 -5.93,3.12 -9.03,3.12 -5.1,0 -12.14,-3.12 -21.75,-9.96 -9.34,-6.54 -21.48,-13.69 -36.16,-21.49 -14.97,-7.47 -32.49,-14.62 -52.84,-21.48 -20.06,-6.54 -42.93,-9.96 -68.92,-9.96 -23.16,0 -43.51,2.81 -61.28,8.72 -17.54,5.92 -32.21,14.02 -43.51,24.59 -11.3,10.59 -19.79,23.36 -25.72,37.98 -5.64,14.64 -8.47,30.21 -8.47,47.34 0,23.65 5.37,43.58 16.38,59.77 11.03,16.18 25.43,30.2 43.22,42.34 17.52,12.15 37.58,23.05 60.18,33.01 22.87,9.66 45.76,19.62 69.21,29.88 23.43,10.59 46.59,22.11 69.48,34.87 22.89,12.78 43.22,28.03 61.03,46.39 17.5,18.38 31.63,40.17 42.36,65.7 10.74,25.54 16.38,56.05 16.38,91.22zm830.8 -222.61c0,23.67 -5.37,40.79 -16.11,50.75 -10.73,9.96 -22.88,14.94 -36.72,14.94l-488.42 0c0,45.78 4.24,86.56 12.44,123.31 8.2,36.43 22.02,67.55 41.52,93.71 19.22,26.14 44.34,46.39 75.13,60.4 31.09,14.01 68.65,20.86 113.58,20.86 35.31,0 66.67,-3.12 94.35,-9.66 27.38,-6.22 51.41,-13.39 71.47,-21.48 20.06,-7.78 36.71,-14.95 49.71,-21.17 12.97,-6.54 22.6,-9.65 29.37,-9.65 3.66,0 7.34,0.93 10.17,3.11 3.12,2.19 5.37,5.29 7.07,9.66 1.69,4.36 3.1,10.27 3.94,17.74 0.56,7.47 1.14,16.81 1.14,27.72 0,8.08 -0.27,14.94 -0.85,20.53 -0.56,5.93 -1.13,10.91 -1.98,15.57 -0.85,4.68 -2.25,8.73 -4.22,12.46 -1.98,3.42 -4.52,7.16 -7.35,10.28 -3.1,3.42 -12.15,9.03 -27.13,16.5 -14.69,7.47 -34.17,14.95 -57.91,22.42 -23.72,7.15 -51.13,13.69 -82.2,19.62 -31.06,5.59 -64.4,8.71 -99.71,8.71 -61.32,0 -114.97,-9.66 -161.02,-28.33 -46.04,-19 -84.75,-47.02 -116.38,-84.07 -31.36,-37.06 -55.08,-83.44 -71.2,-139.49 -15.82,-56.03 -24,-121.11 -24,-195.21 0,-70.37 8.49,-133.87 24.87,-190.23 16.65,-56.03 40.37,-103.98 71.73,-143.22 31.09,-39.22 68.66,-69.11 113.01,-90.29 44.07,-20.85 93.49,-31.44 148.01,-31.44 58.47,0 108.2,10.26 149.44,31.14 40.96,20.53 74.85,48.55 101.4,83.44 26.56,34.87 45.76,75.95 58.2,122.97 12.43,47.32 18.65,97.45 18.65,151.01l0 27.39zm-137.29 -44.52c1.7,-79.07 -14.13,-141.35 -47.74,-186.18 -33.33,-45.15 -82.77,-67.57 -148.3,-67.57 -33.9,0 -63.28,7.17 -88.71,21.18 -25.43,13.69 -46.61,32.38 -63.55,55.42 -17.23,23.04 -30.52,50.13 -39.82,80.63 -9.33,30.83 -14.7,62.89 -15.84,96.52l403.96 0zm481.63 490.69c0,4.66 -1.13,9.02 -3.39,12.13 -2.27,3.42 -5.93,6.24 -10.74,8.73 -5.08,2.49 -11.86,4.35 -20.6,5.61 -9.05,1.23 -20.37,1.86 -34.19,1.86 -13,0 -24.01,-0.63 -33.06,-1.86 -8.76,-1.26 -15.8,-3.12 -20.9,-5.61 -5.36,-2.49 -9.03,-5.31 -10.73,-8.73 -1.98,-3.11 -3.1,-7.47 -3.1,-12.13l0 -821.02c0,-4.37 1.12,-8.1 3.1,-11.84 1.7,-3.73 5.37,-6.85 10.73,-9.03 5.1,-2.49 12.14,-4.36 20.9,-5.59 9.05,-1.26 20.06,-1.89 33.06,-1.89 13.82,0 25.14,0.63 34.19,1.89 8.74,1.23 15.52,3.1 20.6,5.59 4.81,2.18 8.47,5.3 10.74,9.03 2.26,3.74 3.39,7.47 3.39,11.84l0 821.02zm15.55 -1098.44c0,35.5 -5.94,59.47 -18.07,72.24 -12.17,12.76 -34.48,19 -66.98,19 -32.19,0 -53.94,-6.24 -65.8,-18.69 -11.86,-12.45 -17.79,-35.8 -17.79,-70.69 0,-35.17 5.93,-59.14 18.08,-71.9 12.13,-12.77 34.46,-19.31 66.94,-19.31 32.2,0 53.94,6.23 65.82,18.68 11.86,12.46 17.8,36.11 17.8,70.67zm704.5 874.88c0,42.04 -7.07,79.4 -21.18,112.1 -14.13,33 -34.19,60.7 -60.18,83.12 -25.71,22.41 -56.78,39.54 -92.66,51.06 -35.87,11.52 -75.14,17.44 -118.36,17.44 -26.26,0 -51.68,-2.49 -75.69,-6.85 -24.02,-4.68 -45.49,-10.59 -64.41,-17.43 -19.22,-6.86 -35.31,-14.34 -48.59,-21.81 -13,-7.77 -22.89,-14.62 -28.81,-20.53 -6.23,-6.24 -10.45,-14.64 -13.28,-25.54 -2.83,-10.91 -4.25,-25.85 -4.25,-44.84 0,-11.52 0.57,-21.16 1.69,-29.26 1.14,-7.78 2.56,-14.01 4.26,-18.99 1.67,-4.99 3.94,-8.41 7.06,-10.59 2.81,-2.17 6.49,-3.1 10.17,-3.1 6.2,0 15.24,4.03 27.1,12.45 11.88,8.08 26.28,17.11 43.8,26.77 17.23,9.65 37.85,18.69 61.59,26.77 23.72,8.4 51.11,12.45 81.91,12.45 23.17,0 44.07,-2.8 63,-8.08 18.63,-5.61 35.03,-13.71 48.86,-24.3 13.55,-10.59 24.3,-24.28 31.63,-40.47 7.63,-16.51 11.3,-36.11 11.3,-58.54 0,-23.03 -5.35,-42.64 -16.09,-58.22 -10.74,-15.87 -25.15,-29.88 -42.65,-42.03 -17.8,-12.13 -37.58,-23.04 -59.62,-32.38 -22.02,-9.33 -44.9,-19.29 -68.36,-29.58 -23.43,-10.57 -46.31,-22.09 -68.64,-35.17 -22.31,-13.08 -42.37,-28.96 -59.89,-47.95 -17.79,-18.99 -31.92,-41.41 -42.64,-67.57 -10.75,-26.16 -16.1,-57.28 -16.1,-94.03 0,-32.05 5.64,-62.89 16.94,-92.45 11.29,-29.59 28.25,-55.42 50.85,-77.53 22.6,-22.11 50.84,-39.85 84.75,-53.25 33.88,-13.39 73.71,-20.23 118.93,-20.23 19.76,0 39.53,1.86 59.59,5.6 19.77,3.43 37.58,8.1 53.66,13.69 16.11,5.31 29.68,11.22 40.96,17.76 11.31,6.22 19.78,11.83 25.71,16.81 5.66,4.98 9.62,9.03 11.6,12.77 1.97,3.73 3.37,7.78 4.22,12.45 0.86,4.36 1.42,9.97 2.25,16.81 0.87,6.54 1.43,14.95 1.43,24.6 0,10.27 -0.56,19.3 -1.43,26.77 -0.83,7.78 -1.96,14.01 -3.94,18.69 -1.97,4.98 -4.22,8.4 -7.05,10.57 -2.83,2.19 -5.93,3.12 -9.05,3.12 -5.08,0 -12.13,-3.12 -21.75,-9.96 -9.32,-6.54 -21.47,-13.69 -36.14,-21.49 -14.98,-7.47 -32.5,-14.62 -52.85,-21.48 -20.06,-6.54 -42.93,-9.96 -68.92,-9.96 -23.16,0 -43.51,2.81 -61.3,8.72 -17.52,5.92 -32.19,14.02 -43.49,24.59 -11.3,10.59 -19.79,23.36 -25.72,37.98 -5.64,14.64 -8.47,30.21 -8.47,47.34 0,23.65 5.37,43.58 16.38,59.77 11.03,16.18 25.44,30.2 43.23,42.34 17.51,12.15 37.57,23.05 60.18,33.01 22.87,9.66 45.76,19.62 69.19,29.88 23.45,10.59 46.61,22.11 69.5,34.87 22.87,12.78 43.22,28.03 61.01,46.39 17.52,18.38 31.63,40.17 42.37,65.7 10.74,25.54 16.39,56.05 16.39,91.22z"/>
  <path class="fil2" d="M18329.19 6047.07c0,4.66 -1.13,9.02 -3.39,12.13 -2.25,3.42 -5.64,6.24 -10.72,8.73 -5.1,2.49 -11.88,4.35 -20.64,5.61 -9.03,1.23 -20.04,1.86 -33.05,1.86 -13.83,0 -25.13,-0.63 -34.18,-1.86 -8.76,-1.26 -15.53,-3.12 -20.61,-5.61 -4.8,-2.49 -8.48,-5.31 -10.73,-8.73 -2.27,-3.11 -3.41,-7.47 -3.41,-12.13l0 -480.73c0,-47.01 -3.1,-84.68 -9.87,-113.01 -6.49,-28.65 -16.1,-53.25 -28.82,-74.1 -12.71,-20.55 -29.09,-36.43 -49.42,-47.32 -20.06,-10.9 -43.24,-16.51 -69.79,-16.51 -34.19,0 -68.35,13.39 -102.54,40.16 -34.46,26.79 -70.33,66.01 -107.62,117.7l0 573.81c0,4.66 -1.13,9.02 -3.4,12.13 -2.26,3.42 -5.93,6.24 -10.73,8.73 -5.08,2.49 -11.86,4.35 -20.62,5.61 -9.03,1.23 -20.34,1.86 -34.19,1.86 -12.97,0 -24,-0.63 -33.03,-1.86 -8.76,-1.26 -15.83,-3.12 -20.91,-5.61 -5.37,-2.49 -9.05,-5.31 -10.73,-8.73 -1.98,-3.11 -3.11,-7.47 -3.11,-12.13l0 -821.02c0,-4.98 0.84,-9.03 2.54,-12.45 1.69,-3.12 5.08,-6.24 9.88,-9.03 5.1,-2.82 11.3,-4.37 19.21,-5.31 7.64,-0.93 17.81,-1.56 30.51,-1.56 12.15,0 22.32,0.63 30.23,1.56 7.91,0.94 14.13,2.49 18.65,5.31 4.22,2.79 7.63,5.91 9.59,9.03 1.71,3.42 2.83,7.47 2.83,12.45l0 108.65c41.81,-51.67 83.63,-89.66 125.41,-113.63 41.54,-23.98 83.63,-36.12 126,-36.12 49.73,0 91.53,9.33 125.41,28.02 33.92,18.37 61.6,43.27 82.49,74.09 20.91,31.14 35.87,67.57 44.92,108.97 9.34,41.73 13.84,91.85 13.84,150.08l0 500.96z"/>
  <path class="fil2" d="M17438.81 6047.07c0,4.66 -1.14,9.02 -3.39,12.13 -2.27,3.42 -5.64,6.24 -10.74,8.73 -5.09,2.49 -11.86,4.35 -20.62,5.61 -9.05,1.23 -20.05,1.86 -33.06,1.86 -13.82,0 -25.12,-0.63 -34.17,-1.86 -8.76,-1.26 -15.54,-3.12 -20.62,-5.61 -4.81,-2.49 -8.47,-5.31 -10.74,-8.73 -2.26,-3.11 -3.39,-7.47 -3.39,-12.13l0 -480.73c0,-47.01 -3.12,-84.68 -9.89,-113.01 -6.49,-28.65 -16.1,-53.25 -28.81,-74.1 -12.7,-20.55 -29.09,-36.43 -49.44,-47.32 -20.06,-10.9 -43.22,-16.51 -69.77,-16.51 -34.19,0 -68.36,13.39 -102.55,40.16 -34.46,26.79 -70.31,66.01 -107.62,117.7l0 573.81c0,4.66 -1.13,9.02 -3.39,12.13 -2.25,3.42 -5.93,6.24 -10.72,8.73 -5.1,2.49 -11.88,4.35 -20.62,5.61 -9.05,1.23 -20.35,1.86 -34.19,1.86 -13,0 -24.01,-0.63 -33.06,-1.86 -8.76,-1.26 -15.8,-3.12 -20.89,-5.61 -5.37,-2.49 -9.04,-5.31 -10.74,-8.73 -1.98,-3.11 -3.1,-7.47 -3.1,-12.13l0 -1218.61c0,-4.98 1.12,-9.34 3.1,-12.78 1.7,-3.72 5.37,-6.84 10.74,-9.33 5.09,-2.17 12.13,-4.05 20.89,-5.29 9.05,-1.25 20.06,-1.86 33.06,-1.86 13.84,0 25.14,0.61 34.19,1.86 8.74,1.24 15.52,3.12 20.62,5.29 4.79,2.49 8.47,5.61 10.72,9.33 2.26,3.44 3.39,7.8 3.39,12.78l0 491.6c38.99,-45.76 78.55,-79.69 118.38,-101.8 39.53,-22.1 79.65,-33.31 119.75,-33.31 49.73,0 91.52,9.33 125.43,28.02 33.92,18.37 61.6,43.27 82.49,74.09 20.89,31.14 35.87,67.57 44.91,108.97 9.32,41.73 13.85,92.17 13.85,151.01l0 500.03z"/>
  <path class="fil2" d="M16410.85 5673.13l-116.67 0c-37.56,0 -70.04,3.42 -97.72,10.29 -27.42,7.15 -50.29,17.43 -68.66,31.12 -18.07,13.71 -31.64,30.21 -40.12,49.2 -8.47,19.3 -12.7,41.1 -12.7,66.01 0,42.64 12.14,76.58 36.73,101.81 24.57,25.21 59.04,37.98 103.09,37.98 35.87,0 68.93,-9.96 99.71,-30.21 30.52,-19.92 62.72,-50.74 96.34,-92.15l0 -174.05zm135.88 374.87c0,7.15 -2.26,12.76 -6.78,16.18 -4.24,3.75 -10.45,6.54 -18.08,8.41 -7.91,1.88 -19.21,2.81 -33.92,2.81 -14.4,0 -25.97,-0.93 -34.44,-2.81 -8.49,-1.87 -14.69,-4.66 -18.64,-8.41 -3.96,-3.42 -5.66,-9.03 -5.66,-16.18l0 -82.2c-32.78,38.31 -68.94,68.19 -109.04,89.35 -39.81,21.18 -82.21,32.08 -126.83,32.08 -39.27,0 -74.85,-5.61 -106.5,-17.13 -31.64,-11.2 -58.74,-27.4 -81.07,-48.56 -22.32,-21.48 -39.82,-47.64 -52.25,-78.46 -12.15,-31.14 -18.37,-66.32 -18.37,-105.86 0,-46.39 8.47,-86.25 25.43,-120.5 17.23,-33.93 41.8,-62.26 73.72,-84.67 31.92,-22.74 71.19,-39.55 117.51,-50.76 46.32,-11.2 98.59,-16.81 156.5,-16.81l102.54 0 0 -63.82c0,-31.77 -3.1,-59.8 -9.03,-84.07 -6.22,-24.28 -15.83,-44.53 -29.4,-60.4 -13.55,-16.2 -31.05,-28.33 -52.54,-36.74 -21.45,-8.09 -48.01,-12.14 -79.36,-12.14 -33.92,0 -63.84,4.35 -90.67,13.08 -26.86,9.03 -50.29,18.67 -70.35,29.26 -20.35,10.58 -37,20.24 -50.56,29.27 -13.57,8.71 -23.46,13.07 -30.24,13.07 -4.22,0 -8.2,-1.24 -11.57,-3.43 -3.41,-2.49 -6.22,-6.21 -8.76,-11.2 -2.27,-4.67 -4.24,-10.91 -5.37,-18.68 -1.12,-7.48 -1.69,-15.88 -1.69,-24.91 0,-15.25 1.11,-27.4 3.11,-36.12 1.98,-8.71 6.49,-17.11 14.12,-25.21 7.35,-7.8 20.06,-17.13 38.42,-27.72 18.08,-10.59 38.99,-20.23 62.71,-29.26 23.72,-8.73 49.72,-15.87 77.97,-21.79 27.97,-5.93 56.5,-8.72 85.3,-8.72 53.39,0 98.88,6.84 136.44,20.23 37.56,13.4 67.79,33 90.95,58.85 23.18,25.84 40.12,57.91 50.57,96.2 10.46,38.3 15.83,82.82 15.83,133.89l0 553.88z"/>
  <path class="fil2" d="M14846.18 6047.07c0,4.66 -1.15,9.02 -3.41,12.13 -2.25,3.42 -5.64,6.24 -10.72,8.73 -5.08,2.49 -11.88,4.35 -20.64,5.61 -9.03,1.23 -20.04,1.86 -33.03,1.86 -13.85,0 -25.15,-0.63 -34.18,-1.86 -8.77,-1.26 -15.55,-3.12 -20.63,-5.61 -4.8,-2.49 -8.48,-5.31 -10.73,-8.73 -2.27,-3.11 -3.4,-7.47 -3.4,-12.13l0 -480.73c0,-47.01 -3.1,-84.68 -9.88,-113.01 -6.49,-28.65 -16.1,-53.25 -28.8,-74.1 -12.73,-20.55 -29.11,-36.43 -49.44,-47.32 -20.06,-10.9 -43.24,-16.51 -69.79,-16.51 -34.17,0 -68.35,13.39 -102.54,40.16 -34.46,26.79 -70.32,66.01 -107.62,117.7l0 573.81c0,4.66 -1.13,9.02 -3.4,12.13 -2.25,3.42 -5.93,6.24 -10.73,8.73 -5.08,2.49 -11.86,4.35 -20.61,5.61 -9.03,1.23 -20.35,1.86 -34.18,1.86 -12.99,0 -24.02,-0.63 -33.05,-1.86 -8.76,-1.26 -15.83,-3.12 -20.91,-5.61 -5.37,-2.49 -9.03,-5.31 -10.72,-8.73 -1.99,-3.11 -3.12,-7.47 -3.12,-12.13l0 -821.02c0,-4.98 0.84,-9.03 2.54,-12.45 1.69,-3.12 5.08,-6.24 9.89,-9.03 5.09,-2.82 11.29,-4.37 19.22,-5.31 7.62,-0.93 17.79,-1.56 30.51,-1.56 12.13,0 22.3,0.63 30.21,1.56 7.91,0.94 14.13,2.49 18.65,5.31 4.22,2.79 7.63,5.91 9.59,9.03 1.71,3.42 2.83,7.47 2.83,12.45l0 108.65c41.82,-51.67 83.63,-89.66 125.43,-113.63 41.52,-23.98 83.61,-36.12 125.98,-36.12 49.73,0 91.53,9.33 125.41,28.02 33.92,18.37 61.61,43.27 82.5,74.09 20.9,31.14 35.88,67.57 44.91,108.97 9.34,41.73 13.86,91.85 13.86,150.08l0 500.96z"/>
  <path class="fil2" d="M13859.75 5556.38c1.67,-79.07 -14.13,-141.35 -47.76,-186.18 -33.33,-45.15 -82.75,-67.57 -148.29,-67.57 -33.92,0 -63.29,7.17 -88.71,21.18 -25.43,13.69 -46.61,32.38 -63.55,55.42 -17.23,23.04 -30.51,50.13 -39.83,80.63 -9.32,30.83 -14.69,62.89 -15.83,96.52l403.97 0zm137.28 44.52c0,23.67 -5.37,40.79 -16.11,50.75 -10.74,9.96 -22.87,14.94 -36.73,14.94l-488.41 0c0,45.78 4.24,86.56 12.44,123.31 8.18,36.43 22.03,67.55 41.51,93.71 19.21,26.14 44.36,46.39 75.14,60.4 31.09,14.01 68.65,20.86 113.57,20.86 35.3,0 66.67,-3.12 94.35,-9.66 27.4,-6.22 51.4,-13.39 71.46,-21.48 20.06,-7.78 36.74,-14.95 49.71,-21.17 13,-6.54 22.6,-9.65 29.38,-9.65 3.68,0 7.36,0.93 10.18,3.11 3.1,2.19 5.38,5.29 7.05,9.66 1.7,4.36 3.12,10.27 3.97,17.74 0.56,7.47 1.13,16.81 1.13,27.72 0,8.08 -0.29,14.94 -0.84,20.53 -0.58,5.93 -1.14,10.91 -1.99,15.57 -0.84,4.68 -2.27,8.73 -4.23,12.46 -1.99,3.42 -4.51,7.16 -7.34,10.28 -3.12,3.42 -12.15,9.03 -27.12,16.5 -14.69,7.47 -34.19,14.95 -57.93,22.42 -23.72,7.15 -51.12,13.69 -82.19,19.62 -31.07,5.59 -64.4,8.71 -99.72,8.71 -61.3,0 -114.96,-9.66 -161.01,-28.33 -46.05,-19 -84.75,-47.02 -116.4,-84.07 -31.34,-37.06 -55.06,-83.44 -71.17,-139.49 -15.83,-56.03 -24.01,-121.11 -24.01,-195.21 0,-70.37 8.47,-133.87 24.87,-190.23 16.66,-56.03 40.38,-103.98 71.74,-143.22 31.07,-39.22 68.65,-69.11 112.99,-90.29 44.08,-20.85 93.5,-31.44 148.03,-31.44 58.46,0 108.17,10.26 149.43,31.14 40.97,20.53 74.85,48.55 101.4,83.44 26.57,34.87 45.76,75.95 58.2,122.97 12.44,47.32 18.65,97.45 18.65,151.01l0 27.39z"/>
  <g>
   <path class="fil2" d="M15210.33 4305.1c0,-5.05 -1.14,-9.46 -3.39,-12.95 -2.27,-3.77 -5.93,-6.93 -10.74,-9.46 -5.09,-2.19 -11.86,-4.1 -20.6,-5.35 -9.05,-1.27 -20.37,-1.89 -34.19,-1.89 -13,0 -24.01,0.62 -33.06,1.89 -8.76,1.25 -15.81,3.16 -20.91,5.35 -5.35,2.53 -9.03,5.69 -10.72,9.46 -1.98,3.49 -3.1,7.9 -3.1,12.95l0 1749.63c0,4.72 0.78,9.16 2.52,12.92 1.61,3.49 5.1,6.63 9.9,8.83 5.08,1.9 11.3,3.79 19.21,5.06 7.62,1.25 16.94,1.89 27.95,1.89 11.59,0 21.2,-0.64 28.54,-1.89 7.62,-1.27 13.86,-3.16 18.65,-5.06 5.08,-2.2 8.47,-5.36 10.72,-8.83 2.26,-3.79 3.41,-8.2 3.41,-12.92l0 -101.9c21.45,25.54 41.8,47 61.3,64.97 19.19,17.68 38.41,32.5 57.91,44.17 19.19,11.67 38.98,20.19 59.03,25.56 20.33,5.05 42.08,7.88 65.82,7.88 51.42,0 96.88,-11.04 136.71,-32.5 39.56,-21.44 73.17,-52.68 100.57,-93.36 27.12,-40.7 48.02,-89.59 61.87,-147.32 14.12,-57.72 21.18,-122.39 21.18,-194.62 0,-60.25 -5.37,-117.67 -16.67,-171.92 -11.01,-54.26 -28.53,-101.26 -52.54,-141.65 -24.01,-40.37 -55.08,-72.54 -93.5,-96.83 -38.14,-23.98 -84.46,-35.96 -138.41,-35.96 -22.04,0 -43.22,2.52 -62.99,7.57 -19.79,4.74 -39.83,12.62 -59.62,23.35 -19.76,11.03 -40.11,24.92 -60.72,42.26 -20.89,17.04 -42.11,38.48 -64.13,63.72l0 -1013.05z"/>
   <path class="fil3" d="M15614.85 5645.27c0,-42.59 -2.83,-83.9 -8.47,-123.97 -5.93,-40.06 -16.11,-75.39 -30.24,-106.3 -14.41,-30.61 -33.6,-55.52 -57.34,-74.14 -23.73,-18.92 -53.11,-28.38 -88.42,-28.38 -17.79,0 -35.02,2.83 -52.25,8.52 -16.95,5.35 -34.46,14.5 -51.98,27.44 -17.79,12.93 -36.16,29.65 -55.08,50.14 -18.93,20.19 -39.26,45.75 -60.74,76.67l0 331.84c37.29,51.11 73.16,89.9 107.62,116.71 34.19,26.82 69.77,40.38 106.5,40.38 34.46,0 63.57,-9.46 87.85,-27.76 24.31,-18.61 44.06,-42.9 59.04,-73.49 15.25,-30.6 26.28,-64.68 33.33,-102.53 6.79,-37.85 10.18,-76.33 10.18,-115.13z"/>
  </g>
 </g>
</svg>
